<?xml version="1.0" standalone="no"?>
<!DOCTYPE svg PUBLIC "-//W3C//DTD SVG 20010904//EN"
 "http://www.w3.org/TR/2001/REC-SVG-20010904/DTD/svg10.dtd">
<svg version="1.0" xmlns="http://www.w3.org/2000/svg"
 width="1080.000000pt" height="1080.000000pt" viewBox="0 0 1080.000000 1080.000000"
 preserveAspectRatio="xMidYMid meet">

<g transform="translate(0.000000,1080.000000) scale(0.100000,-0.100000)"
fill="#000000" stroke="none">
<path d="M5250 6403 c-74 -13 -188 -47 -259 -77 -271 -117 -475 -351 -568
-653 -25 -82 -27 -100 -27 -273 0 -173 2 -191 27 -273 55 -179 139 -321 262
-443 136 -134 276 -214 468 -266 69 -19 107 -23 247 -23 183 0 255 14 407 78
295 125 518 400 585 725 26 126 21 348 -10 457 -114 393 -399 658 -794 739
-72 15 -274 20 -338 9z"/>
</g>
</svg>
